<?xml version="1.0" encoding="utf-8"?>
<!-- Generator: Adobe Illustrator 27.0.1, SVG Export Plug-In . SVG Version: 6.00 Build 0)  -->
<svg version="1.1" id="Layer_1" xmlns="http://www.w3.org/2000/svg" xmlns:xlink="http://www.w3.org/1999/xlink" x="0px" y="0px"
	 viewBox="0 0 200 200" style="enable-background:new 0 0 200 200;" xml:space="preserve">
<style type="text/css">
	.st0{fill:none;stroke:#E4CC1F;stroke-width:5;stroke-linejoin:round;stroke-miterlimit:10;}
	.st1{fill:#FFFFFF;stroke:#000000;stroke-width:3;stroke-miterlimit:10;}
	.st2{fill:#E4CC1F;}
</style>
<path class="st0" d="M100,25.7l-6.2,0c0.9,3.2,2.2,9.5,0,16.9c-0.9,2.9-2.1,5.3-3.2,7.2c-2.4,1.2-5.5,3.2-8.3,6.2
	c-7.8,8.5-7.9,19.1-7.8,22.2l0,43.4c-1.8,12.4-9.8,22.3-20.3,24.9c-8.1,2.1-15.2-0.8-17.8-2.1c0.4,2.9,2.6,18.8,13.9,24.7
	c13.6,7.1,37.5-1.7,49.9-26.6l0,0c12.4,24.9,36.3,33.7,49.9,26.6c11.3-5.9,13.5-21.8,13.9-24.7c-2.6,1.3-9.6,4.2-17.8,2.1
	c-10.5-2.7-18.5-12.5-20.3-24.9l0-43.4c0.1-3.1-0.1-13.7-7.8-22.2c-2.8-3.1-5.9-5-8.3-6.2c-1.1-1.8-2.4-4.2-3.2-7.2
	c-2.2-7.3-0.9-13.7,0-16.9L100,25.7"/>
<path class="st1" d="M128.9,131.9"/>
<ellipse class="st2" cx="90.9" cy="89.7" rx="5.7" ry="11.7"/>
<ellipse class="st2" cx="108.7" cy="89.7" rx="5.7" ry="11.7"/>
</svg>
