<?xml version="1.0" encoding="UTF-8"?>
<!DOCTYPE svg PUBLIC "-//W3C//DTD SVG 1.1//EN" "http://www.w3.org/Graphics/SVG/1.1/DTD/svg11.dtd">
<svg xmlns="http://www.w3.org/2000/svg" version="1.1" width="500px" height="500px" style="shape-rendering:geometricPrecision; text-rendering:geometricPrecision; image-rendering:optimizeQuality; fill-rule:evenodd; clip-rule:evenodd" xmlns:xlink="http://www.w3.org/1999/xlink">
<g><path style="opacity:1" fill="#972421" d="M 240.5,31.5 C 296.775,30.8173 349.108,44.6507 397.5,73C 438.102,99.6304 464.935,136.464 478,183.5C 490.94,223.987 490.607,264.32 477,304.5C 467.029,330.114 451.029,351.114 429,367.5C 428.324,385.902 425.324,403.902 420,421.5C 411.067,442.77 395.567,456.603 373.5,463C 364.951,465.078 356.284,466.412 347.5,467C 297.499,466.411 247.499,466.577 197.5,467.5C 181.833,467.333 166.167,467.167 150.5,467C 121.925,469.14 101.759,457.307 90,431.5C 83.3153,411.393 79.6486,390.726 79,369.5C 33.7469,338.503 11.2469,295.337 11.5,240C 16.3297,130.635 71.9964,63.6352 178.5,39C 199.105,34.7222 219.772,32.2222 240.5,31.5 Z M 240.5,72.5 C 280.839,70.9183 312.006,86.9183 334,120.5C 354.174,159.429 351.174,196.429 325,231.5C 296.717,262.532 262.217,272.698 221.5,262C 176.555,244.626 154.055,211.792 154,163.5C 158.953,120.89 181.453,92.0567 221.5,77C 227.89,75.1601 234.224,73.6601 240.5,72.5 Z M 447.5,147.5 C 461.886,172.497 470.386,199.497 473,228.5C 475.911,256.702 471.577,283.702 460,309.5C 419.027,274.257 407.694,231.257 426,180.5C 431.684,168.447 438.851,157.447 447.5,147.5 Z M 46.5,149.5 C 81.3495,185.589 89.1829,226.922 70,273.5C 62.9445,287.394 53.4445,299.394 41.5,309.5C 26.7201,280.889 21.5534,250.556 26,218.5C 29.11,194.342 35.9433,171.342 46.5,149.5 Z M 240.5,299.5 C 287.621,297.349 332.955,305.182 376.5,323C 388.053,328.222 398.219,335.389 407,344.5C 413.245,352.408 415.745,361.408 414.5,371.5C 414.758,389.625 411.258,406.958 404,423.5C 395.372,438.448 382.539,447.615 365.5,451C 356.909,452.656 348.243,453.656 339.5,454C 279.836,453.588 220.169,453.588 160.5,454C 126.57,458.695 105.736,444.528 98,411.5C 95.4677,399.607 93.6344,387.607 92.5,375.5C 92.8962,364.139 96.7295,354.139 104,345.5C 121.312,328.756 141.812,317.589 165.5,312C 190.251,305.444 215.251,301.277 240.5,299.5 Z"/></g>
<g><path style="opacity:0.965" fill="#982422" d="M 297.5,323.5 C 307.279,323.1 314.112,327.434 318,336.5C 326.606,359.298 327.272,382.298 320,405.5C 317.184,415.318 310.851,421.318 301,423.5C 292.287,421.789 286.287,416.789 283,408.5C 273.581,382.716 274.581,357.383 286,332.5C 289.183,328.462 293.016,325.462 297.5,323.5 Z"/></g>
<g><path style="opacity:0.964" fill="#982422" d="M 199.5,327.5 C 212.237,327.048 220.404,333.048 224,345.5C 230.26,367.609 229.927,389.609 223,411.5C 219.657,419.855 213.657,424.855 205,426.5C 197.62,426.455 192.287,423.122 189,416.5C 179.743,394.791 178.076,372.458 184,349.5C 186.348,340.015 191.515,332.682 199.5,327.5 Z"/></g>
</svg>
