<?xml version="1.0" encoding="utf-8"?>
<!-- Generator: Adobe Illustrator 27.0.1, SVG Export Plug-In . SVG Version: 6.00 Build 0)  -->
<svg version="1.1" id="Layer_1" xmlns="http://www.w3.org/2000/svg" xmlns:xlink="http://www.w3.org/1999/xlink" x="0px" y="0px"
	 viewBox="0 0 200 200" style="enable-background:new 0 0 200 200;" xml:space="preserve">
<style type="text/css">
	.st0{fill:none;stroke:#759A3E;stroke-width:5;stroke-miterlimit:10;}
	.st1{fill:#759A3E;stroke:#759A3E;stroke-miterlimit:10;}
	.st2{fill:none;stroke:#759A3E;stroke-width:3;stroke-miterlimit:10;}
	.st3{fill:none;stroke:#000000;stroke-miterlimit:10;}
	.st4{fill:#759A3E;stroke:#759A3E;stroke-width:3;stroke-miterlimit:10;}
</style>
<path class="st0" d="M179.6,111.7c0.8-0.7,11.2-9.3,9.4-18.7c-1.3-6.9-8.6-10.2-11.7-11.6c-21.9-9.9-50.1,7.3-75.2,15.7
	c-17.4,5.8-43.9,11-80.2,4.5c-5.3,0.7-9.3,5-9.9,10.3c-0.6,5.6,3,11,8.5,12.5c9.8,3.3,22.6,3.6,27.9,3.6c10.9-0.1,18.2,1.1,28.4,0.6
	c3-0.1,12.5-0.9,21.6-3c18.8-4.4,28.6-13.3,38.7-19.5c6.4-3.9,12.8-6.8,21.6-6.9c11.5,0,19,4.8,19.8,7.2c0.3,0.9,0.6,2.2,0.6,2.2
	s0.7,2.6,0.9,5.1c0.5,4.8,0.1,11.1-3.8,16.5c-3.2,4.4-9.1,7.6-16.3,8.3c-5.9,0.6-12.6-0.5-19.5-4"/>
<path class="st0" d="M159.9,138.4c-11.1,22.2-38.6,39.1-67.3,39c-31.6-0.1-60.1-27-68.7-52.4"/>
<path class="st0" d="M21.9,101.6C20.4,58.7,56,29,94.6,25.9c34.2-2.8,75.1,20.9,85.6,57"/>
<path class="st1" d="M172.8,108.6c-1-0.9-2-1.2-4.1-1.8c-8.5-2.4-16.2,0.2-18.4,1c-2.4,0.9-6.2,2.5-10.1,5.7
	c-0.2,7.2,3.7,13.8,10.1,16.8c5.9,2.9,13.4,2.5,18.5-1.7C175.4,123.3,176.9,112.6,172.8,108.6z"/>
<path class="st2" d="M175.2,108.2L175.2,108.2"/>
<path class="st3" d="M208.3,128.6"/>
<path class="st4" d="M33.4,127.5c-0.1,4.2,4.3,12.8,9.1,15c4.4,2,10.1,2.2,13.8,0c4.9-2.9,6.9-11.6,3.8-14.2"/>
<path class="st4" d="M110.2,122.3c-3.3,1.3-7.7,3.1-13.7,4.5c-3.1,0.7-7.3,1.4-12.3,1.6c0.1,1.4,0.5,3.5,1.5,5.7
	c2.3,4.7,6.4,6.9,7.9,7.6c2.7,0.7,7.1,1.4,12,0c0.6-0.2,12.5-3.9,14.4-14.2c0.8-4-0.3-7.5-1-9.2
	C116.8,119.4,113.8,120.8,110.2,122.3z"/>
</svg>
